<svg xmlns="http://www.w3.org/2000/svg" xmlns:xlink="http://www.w3.org/1999/xlink" width="500" zoomAndPan="magnify" viewBox="0 0 375 374.999991" height="500" preserveAspectRatio="xMidYMid meet" version="1.0"><defs><g/></defs><rect x="-37.5" width="450" fill="#ffffff" y="-37.499999" height="449.999989" fill-opacity="1"/><rect x="-37.5" width="450" fill="#000000" y="-37.499999" height="449.999989" fill-opacity="1"/><g fill="#ffffff" fill-opacity="1"><g transform="translate(11.664056, 258.054844)"><g><path d="M 64.125 0 L 34.453125 0 L 3.671875 -134.3125 L 30.125 -134.3125 L 50.4375 -39.875 L 52.734375 -39.875 L 76.796875 -134.3125 L 99.484375 -134.3125 L 124.015625 -39.875 L 126.3125 -39.875 L 146.703125 -134.3125 L 172.25 -134.3125 L 141.5625 0 L 111.796875 0 L 88.28125 -86.625 L 86.359375 -86.625 Z M 64.125 0 "/></g></g></g><g fill="#ff3131" fill-opacity="1"><g transform="translate(187.498043, 257.27651)"><g><path d="M 64.125 0 L 34.453125 0 L 3.671875 -134.3125 L 30.125 -134.3125 L 50.4375 -39.875 L 52.734375 -39.875 L 76.796875 -134.3125 L 99.484375 -134.3125 L 124.015625 -39.875 L 126.3125 -39.875 L 146.703125 -134.3125 L 172.25 -134.3125 L 141.5625 0 L 111.796875 0 L 88.28125 -86.625 L 86.359375 -86.625 Z M 64.125 0 "/></g></g></g></svg>